<svg xmlns="http://www.w3.org/2000/svg" width="1rem" height="1rem" viewBox="0 0 72 72">
	<g stroke-linecap="round" stroke-linejoin="round" stroke-miterlimit="10" stroke-width="0.5">
		<path fill="#FBA304" d="M32.522 13.005c.698-1.205 1.986-2.024 3.478-2.024s2.78.82 3.478 2.024L60.446 54.94A4 4 0 0 1 61 56.948a4.03 4.03 0 0 1-4.032 4.033l-41.936.017A4.033 4.033 0 0 1 11 56.966c0-.736.211-1.415.554-2.009z" />
		<path fill="#fff" d="M37.613 47.27a1.613 1.613 0 0 1-3.226 0V23.893a1.613 1.613 0 0 1 3.226 0z" />
		<circle cx="36" cy="54.529" r="1.613" fill="#fff" />
	</g>
	<g fill="none" stroke="#FBA304" stroke-linecap="round" stroke-linejoin="round" stroke-miterlimit="10" stroke-width="0.5">
		<path d="M32.522 13.005c.698-1.205 1.986-2.024 3.478-2.024s2.78.82 3.478 2.024L60.446 54.94A4 4 0 0 1 61 56.948a4.03 4.03 0 0 1-4.032 4.033l-41.936.017A4.033 4.033 0 0 1 11 56.966c0-.736.211-1.415.554-2.009z" />
		<path d="M37.613 47.27a1.613 1.613 0 0 1-3.226 0V23.893a1.613 1.613 0 0 1 3.226 0z" />
		<circle cx="36" cy="54.529" r="1.613" />
	</g>
</svg>
